<svg xmlns="http://www.w3.org/2000/svg" xmlns:xlink="http://www.w3.org/1999/xlink" version="1.1" id="Layer_1" x="0px" y="0px" viewBox="0 0 8192 1170.5" style="enable-background:new 0 0 8192 1170.5;" xml:space="preserve"><script xmlns="" id="nimlmejbmnecnaghgmbahmbaddhjbecg"/><script xmlns=""/><script xmlns=""/>
<style type="text/css">
	.st0{fill:url(#SVGID_1_);}
	.st1{fill:url(#SVGID_2_);}
	.st2{fill:url(#SVGID_3_);}
	.st3{opacity:0.18;clip-path:url(#SVGID_5_);}
	.st4{fill:#FFFFFF;}
	.st5{clip-path:url(#SVGID_7_);}
	.st6{fill:#F39221;}
	.st7{clip-path:url(#SVGID_9_);}
	.st8{clip-path:url(#SVGID_11_);}
	.st9{fill:url(#SVGID_12_);}
	.st10{fill:url(#SVGID_13_);}
	.st11{fill:url(#SVGID_14_);}
</style>
<g>
	
		<linearGradient id="SVGID_1_" gradientUnits="userSpaceOnUse" x1="1521.525" y1="583.6129" x2="4983.2251" y2="583.6129" gradientTransform="matrix(1 0 0 -1 0 1169.5276)">
		<stop offset="0" style="stop-color:#5FA4EE"/>
		<stop offset="0.21" style="stop-color:#539EE9"/>
		<stop offset="0.57" style="stop-color:#358DDA"/>
		<stop offset="1" style="stop-color:#0975C6"/>
	</linearGradient>
	<path class="st0" d="M4980.8,14.1c-2.3,16.7-7.1,33.1-5.4,50.2c-6.5,1.5-12.9,3.4-19.4,4.5c-59.2,9.6-118,21.6-176.3,35.3   c-131.1,30.9-259.7,71.3-384.8,121.1c-93.5,37.2-185,78.9-274,126.1c-80.1,42.5-158.3,88.3-233.9,138.2   c-78.5,51.7-154.2,107.5-226.7,167.2c-60.2,49.6-117.8,102-174.1,156c-21.6,20.8-41.9,42.8-62.6,64.5   c-36.8,38.6-72.3,78.3-106.5,119.1c-47.2,56.3-91.8,114.6-133.9,174.9H1521.5l1.9-14.9c3.3-25.7,6.3-51.5,9.3-77.3   c3.4-29.1,7.1-58.1,10.1-87.3c3.3-32.4,5.3-65,9.2-97.4c1.9-15.9,2.7-31.8,4.2-47.7c2.4-25.8,4.8-51.7,7.1-77.5   c1.8-19.9,3.3-39.8,5.1-59.7c2.2-24.5,4.7-49,6.6-73.5c1.9-25.2,3.1-50.5,4.7-75.7c0.2-2.7,0.7-5.3,0.9-7.9   c2.2-27.2,5.3-54.3,6.3-81.5c1-28,5.9-55.6,4.9-83.7c0-2.7,0.4-5.3,1-7.9c2-9.9,2-19.9,2.4-29.8c1.3-27.9,3-55.8,4.6-83.7   c0.1-2,0.4-4,0.8-5.9c2.2-10.5,2.5-21.1,2.5-31.8c0.1-30,5.6-59.7,4.7-89.7c0-1.3,0.1-2.7,0.5-4c3-13.8,2.9-27.8,2.9-41.8   c0-6-0.3-12.1,0.7-18c4.4-24.5,3.2-49.1,3.3-73.8h3368C4982.4,5.1,4981.4,9.6,4980.8,14.1z"/>
	
		<linearGradient id="SVGID_2_" gradientUnits="userSpaceOnUse" x1="1898.9183" y1="1014.313" x2="1269.2281" y2="-146.1571" gradientTransform="matrix(1 0 0 -1 0 1169.5276)">
		<stop offset="0" style="stop-color:#5FA4EE"/>
		<stop offset="1" style="stop-color:#33E2FF"/>
	</linearGradient>
	<path class="st1" d="M2952.7,73.8c-1,5.8-0.7,12-0.7,18c-0.1,14,0,28-2.9,41.8c-0.3,1.3-0.5,2.7-0.5,4c0.9,30-4.6,59.7-4.7,89.7   c0,10.7-0.3,21.3-2.5,31.8c-0.4,2-0.7,3.9-0.8,5.9c-1.6,27.9-3.3,55.8-4.6,83.7c-0.5,10-0.4,20-2.4,29.8c-0.6,2.6-1,5.2-1,7.9   c1,28-3.9,55.7-4.9,83.7c-1,27.2-4.1,54.4-6.3,81.6c-0.2,2.7-0.7,5.3-0.9,7.9c-1.6,25.2-2.8,50.5-4.7,75.7   c-1.9,24.5-4.4,49-6.6,73.5c-1.8,19.9-3.3,39.8-5.1,59.7c-2.3,25.8-4.7,51.7-7.1,77.5c-1.4,15.9-2.3,31.8-4.2,47.7   c-3.9,32.4-5.9,64.9-9.2,97.4c-3,29.1-6.7,58.2-10.1,87.3c-3.1,25.8-6,51.6-9.3,77.3l-1.9,14.9H0V864c6.2-0.3,11.5-2.8,16.5-6.5   c9.1-6.7,18.6-12.9,27.6-19.8c50.7-38.9,101.6-77.6,152-116.9c29.4-22.9,58.2-46.6,86.9-70.4c23.5-19.6,46.5-39.8,69.6-59.9   c19.1-16.6,38.2-33.1,57-50s37.3-34.1,55.9-51.3c31.8-29.3,64.4-57.8,95.1-88.3c54.8-54.4,110.4-108,162.6-165   c31.9-34.9,64.9-68.7,95.9-104.3c31.5-36.1,63.3-71.9,94.9-107.9C919.9,16.7,926,9.5,928,0h2028   C2955.9,24.6,2957.2,49.3,2952.7,73.8z"/>
	
		<linearGradient id="SVGID_3_" gradientUnits="userSpaceOnUse" x1="2862.3" y1="584.2625" x2="6324" y2="584.2625" gradientTransform="matrix(1 0 0 -1 0 1169.5276)">
		<stop offset="0" style="stop-color:#5FA4EE"/>
		<stop offset="0.21" style="stop-color:#539EE9"/>
		<stop offset="0.57" style="stop-color:#358DDA"/>
		<stop offset="1" style="stop-color:#0975C6"/>
	</linearGradient>
	<path class="st2" d="M6321.6,13.4c-2.3,16.7-7.1,33.1-5.4,50.2c-6.5,1.5-12.9,3.4-19.4,4.5c-59.2,9.6-118,21.6-176.3,35.3   c-131.1,30.9-259.7,71.3-384.8,121.1c-93.5,37.2-185,78.9-274,126.1c-80.1,42.5-158.3,88.3-233.9,138.2   c-78.5,51.7-154.2,107.5-226.7,167.2c-60.2,49.6-117.8,102-174.1,156c-21.6,20.8-41.9,42.8-62.6,64.5   c-36.8,38.6-72.3,78.3-106.5,119.1c-47.2,56.3-91.8,114.6-133.9,174.9H2862.3l1.9-14.9c3.3-25.7,6.3-51.5,9.3-77.3   c3.4-29.1,7.1-58.1,10.1-87.3c3.3-32.4,5.3-65,9.2-97.4c1.9-15.9,2.7-31.8,4.2-47.7c2.4-25.8,4.8-51.7,7.1-77.5   c1.8-19.9,3.3-39.8,5.1-59.7c2.2-24.5,4.7-49,6.6-73.5c1.9-25.2,3.1-50.5,4.7-75.7c0.2-2.7,0.7-5.3,0.9-7.9   c2.2-27.2,5.3-54.3,6.3-81.6c1-28,5.9-55.6,4.9-83.7c0-2.7,0.4-5.3,1-7.9c2-9.9,2-19.9,2.4-29.8c1.3-27.9,3-55.8,4.6-83.7   c0.1-2,0.4-4,0.8-5.9c2.2-10.5,2.5-21.1,2.5-31.8c0.1-30,5.6-59.7,4.7-89.7c0-1.3,0.1-2.7,0.5-4c3-13.8,2.9-27.8,2.9-41.8   c0-6-0.3-12.1,0.7-18c4.4-24.5,3.2-49.1,3.3-73.8h3368C6323.2,4.5,6322.2,8.9,6321.6,13.4z"/>
	<g>
		<defs>
			<rect id="SVGID_4_" y="0" width="8192" height="1171.2"/>
		</defs>
		<clipPath id="SVGID_5_">
			<use xlink:href="#SVGID_4_" style="overflow:visible;"/>
		</clipPath>
		<g id="Layer_2_1_" class="st3">
			<g id="Layer_1-2_1_">
				<path class="st4" d="M3098.4,3831.6c-257-42.2-517.2-62.2-777.7-59.9c-140.8,0-275.1,4.9-399.6,14.4      c-270.2,19.5-493.6,59-623.8,109.2l-35.8,4.3c2.1-15.5,4.3-30.7,7.5-47c36-205.6,82.4-409.2,139.1-610.1      c7.1-26.2,14.6-52.6,21.5-79.2c74.9-266.7,163.7-551.5,251.1-835.4c9.4-30.8,18.7-61,27.7-90.8      c83.9,618.5-32,1180.3-67.8,1330.5c-1.7,6.9-3.2,13.1-4.3,18c-0.2,1.3-0.2,2.6,0,3.9c-0.9,2.6-1.6,5.2-2.1,7.9      c-1.7,6.9-2.8,10.1-2.8,10.1c0,9,136.5,5.2,355.2,19.1c112.9,7.1,247.2,19.1,395.9,41l0,0c242.8,33.9,482.2,88.5,715.7,163.3"/>
				<path class="st4" d="M4364.1,4604.7c-31.5-27-367-302.6-993.3-509.2c-395.3-130.3-906.2-232.6-1529.8-228.5      c-33.7,0-68,0-102.8,0c-131.5,3.2-269.5,11.6-411.8,25.5l-29,1.7c131.1-50.2,353.6-89.7,623.8-109.2      c124.7-9.4,258.8-14.4,399.6-14.4c260.5-2.4,520.6,17.7,777.7,59.9c124.1,40,245.9,86.9,364.8,140.6      c339.5,148.8,645.9,363.9,901.3,632.6"/>
				<path class="st4" d="M1953.1,2481.5c-72.7,226.6-146.1,485.4-206.9,696.6l0,0c-6.4,21.5-12.4,44.6-18.2,65.7      c-40.1,148.9-71.2,265.9-87.1,324.5c35.8-151.3,151.9-712.7,67.8-1330.5l0,0c6-20.4,11.8-41,17.6-61.4      c349.4-1218,257.5-2038.6,273.4-2139.5C2077.4,344,2149.9,647,2148,1045.5c0,187.1,42.9,694.9-194.9,1437.8"/>
				<path class="st4" d="M212.1,626c0,0,55.8,262.9,125.5,649.1c-92.4-167.7-214.7-317-360.9-440.6      c-36.7-195.3-76.4-393.8-122.5-591c275.1,42.9,1573,539.3,1709.4,563.5C1466.6,823.8,211.7,626,211.7,626"/>
				<path class="st4" d="M4364.5,4606.4c-45.5-19.3-1068.9-439.9-2739.3-95.9c42.9-118,75.5-239.5,97.4-363.1      C2486.4,4055.6,3508.3,4073.4,4364.5,4606.4"/>
				<path class="st4" d="M1722.6,4147.4c-21.9,123.6-54.5,245.1-97.4,363.1c-570.7,119.8-1126.7,301.4-1658.2,541.4      c239.3-1115.9,311.2-1554.3,255.4-2266.1c131.5-173.2,221.4-374.3,262.7-587.8c27.9,193.1,52.8,392.5,72.5,586.5      c50.8,525.7,63.3,1054.3,37.6,1581.8C595.2,4386.7,1062.6,4226,1722.6,4147.4"/>
				<path class="st4" d="M222.4,2785.8v-1.3C196,2442.5,155.7,2016.7,92,1552.8C59.6,1321,22.2,1080.7-23.3,834.5      c146.2,123.6,268.5,272.9,360.9,440.6c22.7,128.8,47,271.2,71.9,421.9c25.8,159.4,52.1,328.8,75.5,501.1      C443.8,2411.6,353.9,2612.7,222.4,2785.8"/>
				<g>
					<defs>
						<polygon id="SVGID_6_" points="6040.5,11.2 5914.5,311.8 5648,621.9 5523.5,849.4 3917.5,5784.1 7028.4,6068.7 7832.7,-589.3               "/>
					</defs>
					<clipPath id="SVGID_7_">
						<use xlink:href="#SVGID_6_" style="overflow:visible;"/>
					</clipPath>
					<g class="st5">
						<path class="st4" d="M5023.5,31.3l-21.5-3l-29.6,125.1c-20,84.3-31.3,125.5-34.8,126.4c-12.1-0.5-24.1-2.2-35.8-4.9        c-44.3-8.4-89-14.1-133.9-17.2c-76.2-8.4-85.8-9-116.7-10.1l-64.4-2.1c-103.6-2.7-207.4,1.2-310.5,11.6        c-7.6,1.6-15.2,2.5-23,2.6c-8.2-41.6-14-83.5-17.4-125.8c-7.7-68.5-14.4-126.2-15.7-128.8s-15.2-2.6-119.7,11.4        c-129.7,16.8-258.1,42.9-384.1,78.1c-34.9,8.9-69.2,19.6-103,32c-4.9,2.4,4.7,29.4,42.9,125.1l50.2,121.9l-11.8,4.1        c-6.7,2.4-28.8,9.2-48.9,15c-42.9,13.5-148.5,55.6-226.2,91.4c-61.8,28.3-185,91.6-210.3,107.3        c-25.3,15.7-39.7,25.3-57.9,35.6c-9.4,5.4-21.5,12.7-27.9,16.7l-11.4,7.1l-86.9-104.3c-83.3-99.8-87.6-103.9-95.5-98.9        c-38.7,23-76.1,48.2-111.8,75.5c-56.4,41-191.2,152.1-224.2,185c-13.3,13.1-35,33.7-47.6,45.9c-36.9,34.3-76.6,78.3-73.6,82.6        c3,4.3,51.5,38.8,111.4,82.4s109.7,78.8,110.3,79.6c-7.5,11.2-15.9,21.9-25.1,31.8c-42.9,49.4-103.9,124.9-123.4,151.9        l-31.1,42.9c-54.2,75.3-101,155.5-139.9,239.7c-17.4,39.7-17.6,40.1-28.5,35.6c-14.4-6.7-259.2-95.5-260.3-95.1        c-7.3,4.7-51.3,111.6-89.9,218.2c-38.6,106.7-71.5,215.9-68.5,223.8c0,1.1,259.7,50.4,275.5,52.1c12.2,1.7,12,2.1,0,42.9        c-23.3,87-37.7,176.2-42.9,266.1c0,11.4-1.9,34.1-2.6,50.6c-1.9,32-1.7,124.2,0,186.1c1,12.8,1,25.6,0,38.4        c0,0-64.4,4.9-142.9,10.3c-78.5,5.4-143.6,10.9-145.7,11.8c-2.1,0.9-1.7,57.9,6,104.5c2.4,16.3,6.2,42.9,8.8,61.4        c15.9,88.8,36.5,176.7,61.6,263.3c11.5,40.2,25.9,79.6,42.9,117.8c3.2,8.2,9.4,6.7,143.3-33.5l139.9-42.9l4.7,11.6        c2.4,6.2,7.7,18.5,11.8,27.5c8.2,17.6,13.9,32.4,24,58.2c10.1,25.8,69.1,139.3,101.1,193.1c37.5,65.7,78.8,129.2,123.6,190.1        c12.7,14.8,26.2,31.5,30,36.7l7.1,9.2l-121.7,74.9c-95.3,58.6-120.8,76-118.5,80.5c20,27.1,41.4,53,64.4,77.7        c80.6,92.3,168.7,177.7,263.3,255.6c76.2,64.4,85.8,71.2,90.3,69.1c4.5-2.1,46.1-45.3,97.6-97.4s95.1-94.9,97.2-94.4        c6.2,3.6,11.9,8,17.2,12.9c78.4,60.4,160.8,115.3,246.8,164.4l54.5,30.5c33.2,18.5,67.4,35.3,102.4,50.2        c39.2,20,79.5,37.5,120.8,52.6c11.3,3.6,22.2,8.2,32.6,13.9c2.1,2.6-15.5,41.8-54.7,120.8l-58.4,117.4l19.1,7.9        c44.2,18.2,182.8,64.4,240.1,80.3c71.2,19.5,198.9,48.9,251.3,57.5c87.1,14.8,111.8,17.8,114.2,14.6s13.3-57.1,25.8-122.7        l21.5-119.5h11.2c6.2,0,47.9,4.3,92.9,9.4c99.4,10.9,170.2,17.2,208.2,17.6c15.7,0,47.9,0,71.5,1.7c23.6,1.7,53,1.3,65.5,0        c12.4-1.3,42.9-1.7,66.7-2.8c23.8-1.1,59.7-3,78.8-4.9l34.8-3l14.4,121.2c7.7,66.7,14.2,123.4,15,126        c0.9,2.6,9.9,4.5,126.2-9.9c105.4-13.1,298.5-49.6,331.3-62.7c8.3-2.7,16.7-4.7,25.3-6c66.7-16,132.6-35.5,197.2-58.6        c8-3.3,16.2-6.2,24.5-8.6c3-0.2,5.3-2.8,5.2-5.8c0-2.4-23.8-53.6-51.5-113.7c-27.7-60.1-49.1-110.7-48.7-112        c3.4-2.9,7.4-4.8,11.8-5.6c34.2-10.7,67.7-23.4,100.4-38c134-52,262.8-116.7,384.5-193.1c14.8-9.7,27.5-15.5,29.8-13.5        c2.4,1.9,40.8,45.7,84.8,98.3l80.3,94.6l10.1-6c11.8-7.1,64.4-42.9,94.2-63.1c56.2-38.8,203-157.9,239.5-193.1        c8.4-8.4,32.4-31.5,53.4-51.9c42.9-39.9,87.1-85.8,91.2-92.3c4.1-6.4-14.2-16.5-160.3-119.1c-59.9-41.4-58.2-32.6-15.5-80.3        c37.1-41.2,59.2-67.2,75.1-88l31.1-41c27.3-36.5,52.6-74.5,75.8-113.7c7.4-13.2,15.7-25.8,24.7-38        c27.6-42.1,52.8-85.7,75.8-130.5c5.1-13.9-3.6-16.3,139.1,38.8c62.2,24.5,113.5,44.2,114.2,44c5.6-3,60.5-139.3,101.7-252.8        c41.2-113.5,85.8-252.6,83.3-257.5c0,0-55.4-9.9-122.3-21.5c-153.2-26.2-144.6-23.6-139.5-38c10.7-47.6,18.7-95.7,23.8-144.2        c0.7-14.4,2.4-28.7,4.9-42.9c6.9-43.3,11.2-87.1,12.9-130.9c0-15.5,1.1-37.8,1.7-49.1c0-24.9,0-57.1-3.6-109.4        c-3.6-60.3-10.7-54.1,65.7-58.2c187.3-10.9,209.4-12.7,209.9-17.4c-2.5-40.6-7.2-81.1-13.9-121.2c-3.6-27.3-8.2-58.4-9.4-69.1        c-17.8-93.8-40.8-186.6-68.7-277.9c-10.5-31.3-30.5-87.1-35.6-98.7l-4.1-10.1l-128.8,37.6c-70.6,21.5-131.1,38-134.3,38.2        s-9.7-10.5-15.5-26c-58.8-144.1-134.8-280.6-226.4-406.4c-12.9-17.8-23.2-33.7-23.6-35c-0.4-1.3,50.4-31.8,112.9-67.6        c62.4-35.8,115-66.1,117.2-67.6c2-1.8,2.2-5,0.3-7c-0.1-0.1-0.2-0.2-0.3-0.3c-5.2-6.2-10.1-12.6-14.6-19.3        c-37.9-51.2-78.9-100.1-122.7-146.4c-6.3-5.2-12-11.1-17-17.6c-18.2-27-152.4-153.4-230-216.7c-85.8-70-92.1-74.2-96.8-71        s-45.1,44.8-95.5,95.7l-91.6,92.1l-26.4-19.7c-14.4-11.2-42.9-30.7-61.4-42.9s-42.9-28.5-52.8-35.4        c-9.9-6.9-34.1-21.5-54.1-32c-20-10.5-46.8-26.6-59.7-34.3c-31.5-18.5-93.6-48.9-182.2-89.5c-40.1-18.2-77-35.6-82.2-38.6        l-9.4-5.2L5560,323c33.3-60.1,59.9-110.9,59.9-113.3c0-6.4-109-49.4-199.1-78.8c-130.1-42-262.8-75-397.4-98.7 M5523.3,850.2        c92.5,51.2,181.4,108.5,266.1,171.7c73.8,60.2,143.9,124.7,210.1,193.1c91.7,97.7,171,206.3,236.1,323.4        c38.2,62.2,70.5,127.9,96.4,196.1c30.2,78.2,54.9,158.5,74,240.1c40.2,181.1,46.5,368.1,18.5,551.5        c-33.2,201.6-103.4,395.4-207.1,571.5c-100.8,167.6-228.9,317.1-379,442.5c-69.7,57.6-142.8,110.9-218.9,159.7        c-66.2,43.2-135.9,80.9-208.4,112.7c-174.4,85.9-360.5,145.5-552.4,177c-88.6,17.4-178.6,27.3-268.9,29.8        c-293.1,10.5-518-18.7-780-102.8c-318.8-101.1-606.2-282.7-834.3-527.3c-75.5-86-144-177.9-204.9-274.7        c-41.6-72.1-102.4-193.1-105.2-210.9c-6.2-22.9-13.8-45.3-23-67.2c-93.5-252.9-115.8-526.6-64.4-791.2        c15.5-82.6,38.5-163.5,68.9-241.8c27.4-80.4,61.8-158.3,103-232.6c138.9-248.8,336.4-460,575.3-615.2        c21.8-13.2,42.8-27.5,63.1-42.9c72.7-44.4,147.9-84.6,225.3-120.2c112.9-49.7,229.2-91.5,347.9-125.1        c125.2-31.6,252.8-52.6,381.5-62.9c215.2-16,431.5-0.6,642.3,45.7c188,40.3,369.3,107.4,538.2,199.4"/>
					</g>
				</g>
				<path class="st6" d="M3439.6,2467.8c-113.7,522.1-126.2,886.3-126.2,886.3c-350-444.4-30.5-723.4-104.3-1091.4L3439.6,2467.8z"/>
				<path class="st6" d="M3596.7,2494.9c-36.1,221-142.7,780.5-142.7,780.5c475.3-325.3,240.1-581.1,427.7-911.4L3596.7,2494.9z"/>
				<path class="st4" d="M4202.5-1527.9C3960.8-1291.8,3910-477.7,4019-119.7c-181.5-228.5-212.7-1153.4-39.1-1316.7      c6.7-6.2,9.9-10.1,11.4-11.4c-17.2,10.1-400.9,366.7-519.1,834.1c-114.8,450.6,92.5,1036.1,102.4,1064.6      c-115.2-194.9-194.2-409-233-632c-44.2-282.8,25.8-642.1,60.1-710.9c-649.8,686.7-299.1,1943.8-116.3,2162      c-141.2-98.9-310.3-389.1-482.6-962.7c48.9-336.3-201.9,844.6,328.1,1616.5c43.1,66,73.4,139.5,89.3,216.7l230.5,205.2      C3669.6,1341.4,4266-247,5871.8-946.1c-168-410.9-754.3-735.2-1220.2-735.2C4474.8-1681.3,4315.1-1634.6,4202.5-1527.9"/>
				<g>
					<defs>
						<path id="SVGID_8_" d="M4202.5-1527.9C3960.8-1291.8,3910-477.7,4019-119.7c-181.5-228.5-212.7-1153.4-39.1-1316.7        c6.7-6.2,9.9-10.1,11.4-11.4c-17.2,10.1-400.9,366.7-519.1,834.1c-114.8,450.6,92.5,1036.1,102.4,1064.6        c-115.2-194.9-194.2-409-233-632c-44.2-282.8,25.8-642.1,60.1-710.9c-649.8,686.7-299.1,1943.8-116.3,2162        c-141.2-98.9-310.3-389.1-482.6-962.7c48.9-336.3-201.9,844.6,328.1,1616.5c43.1,66,73.4,139.5,89.3,216.7l230.5,205.2        C3669.6,1341.4,4266-247,5871.8-946.1c-168-410.9-754.3-735.2-1220.2-735.2C4474.8-1681.3,4315.1-1634.6,4202.5-1527.9"/>
					</defs>
					<clipPath id="SVGID_9_">
						<use xlink:href="#SVGID_8_" style="overflow:visible;"/>
					</clipPath>
					<g class="st7">
						<rect x="2600.8" y="-1681.3" class="st4" width="3271" height="4027"/>
					</g>
				</g>
				<g>
					<defs>
						<path id="SVGID_10_" d="M3646.5,2252.8c-16.5,115.7,1110.1-364.8,1230.9-723.6c310.7-306.7,193.1-971.5,1476.4-1770.6        c0,0-164.2-354.5-366.7-608.6C5987-850,3964.9,18.5,3646.5,2252.8"/>
					</defs>
					<clipPath id="SVGID_11_">
						<use xlink:href="#SVGID_10_" style="overflow:visible;"/>
					</clipPath>
					<g class="st8">
						<rect x="3629.9" y="-850" class="st4" width="2723.8" height="3218.5"/>
					</g>
				</g>
				<path class="st4" d="M4877.4-1840.1c0,0,1129,36.5,1896.1,2061.8c150.2,1030,1577.7,1407.9,2031.3,443.3      c206.9-526-199.4-1954.7-1288.6-2487.3c325.3,719.1,436.1,1166.1,410.3,1379.2c-311.4-1180.3-794-1483.9-869.7-1511.2      C6249-2243.6,5383.8-2262.5,4877.4-1840.1"/>
			</g>
		</g>
	</g>
	
		<linearGradient id="SVGID_12_" gradientUnits="userSpaceOnUse" x1="0" y1="737.5276" x2="928" y2="737.5276" gradientTransform="matrix(1 0 0 -1 0 1169.5276)">
		<stop offset="0" style="stop-color:#5FA4EE"/>
		<stop offset="0.21" style="stop-color:#539EE9"/>
		<stop offset="0.57" style="stop-color:#358DDA"/>
		<stop offset="1" style="stop-color:#0975C6"/>
	</linearGradient>
	<path class="st9" d="M352.4,590.5c19.1-16.6,38.2-33.1,57-50s37.3-34.1,55.9-51.3c31.8-29.3,64.4-57.8,95.1-88.3   c54.8-54.4,110.4-108,162.6-165c31.9-34.9,64.9-68.7,95.9-104.3c31.5-36.1,63.3-71.9,94.9-107.9C919.9,16.7,926,9.5,928,0H0v864   c6.2-0.3,11.5-2.8,16.5-6.5c9.1-6.7,18.6-12.9,27.6-19.8c50.7-38.9,101.6-77.6,152-116.9c29.4-22.9,58.2-46.6,86.9-70.4   C306.3,630.8,329.3,610.6,352.4,590.5z"/>
	
		<linearGradient id="SVGID_13_" gradientUnits="userSpaceOnUse" x1="6315.8794" y1="971.5175" x2="8192.0098" y2="971.5175" gradientTransform="matrix(1 0 0 -1 0 1169.5276)">
		<stop offset="0" style="stop-color:#057ED8"/>
		<stop offset="0.44" style="stop-color:#2B8EE1"/>
		<stop offset="1" style="stop-color:#5FA4EE"/>
	</linearGradient>
	<path class="st10" d="M6324,0c-0.8,4.5-1.8,8.9-2.4,13.4c-2.3,16.7-7.1,33.1-5.4,50.2c34.3-4.5,68.5-9.3,102.9-13.5   c36.3-4.4,72.6-8.8,109.2-10.8c31.2-1.8,62.4-4.1,93.6-6c6-0.4,11.9,0.1,17.9,0.2c6.6-0.5,13.2-1.4,19.9-1.6   c62.6-1.3,125.3-1.9,187.9,0.8c51.2,2.2,102.4,5.2,153.5,10.2c81,7.8,161.5,18.3,241.6,32.2c112.9,19.7,224.7,45.7,334.8,77.7   c53.8,15.6,107,32.8,160,51c7.5,2.6,14.9,5.7,22.4,8.6c3.2,0.6,6.5,1.4,9.6,2.4c62,21.9,123.2,46,183.7,71.7   c74.6,31.6,148,65.8,220.3,102.5c5.9,3,11.6,6.5,18.5,7.1V0H6324z"/>
	
		<linearGradient id="SVGID_14_" gradientUnits="userSpaceOnUse" x1="4523.8804" y1="568.8532" x2="8192" y2="568.8532" gradientTransform="matrix(1 0 0 -1 0 1169.5276)">
		<stop offset="0" style="stop-color:#5FA4EE"/>
		<stop offset="0.23" style="stop-color:#5BAAF0"/>
		<stop offset="0.54" style="stop-color:#4EBCF5"/>
		<stop offset="0.9" style="stop-color:#3AD9FC"/>
		<stop offset="1" style="stop-color:#33E2FF"/>
	</linearGradient>
	<path class="st11" d="M8173.5,388.9c-72.3-36.6-145.8-70.7-220.3-102.5c-60.5-25.7-121.7-49.7-183.7-71.6c-3.2-0.9-6.4-1.7-9.6-2.4   c-7.5-2.9-14.8-5.9-22.4-8.6c-52.9-18.2-106.2-35.4-160-51c-110.1-32.1-221.8-58-334.8-77.7c-80.1-13.9-160.7-24.4-241.6-32.2   C6950,38,6898.8,35,6847.6,32.8c-62.6-2.8-125.3-2.2-187.9-0.8c-6.6,0.1-13.3,1-19.9,1.6c-6-0.1-12-0.5-17.9-0.2   c-31.2,1.9-62.4,4.3-93.6,6c-36.6,2.1-72.9,6.5-109.2,10.8c-34.3,4.1-68.6,9-102.9,13.5c-6.5,1.5-12.9,3.4-19.4,4.5   c-59.2,9.6-118,21.6-176.3,35.3c-131.1,30.9-259.7,71.3-384.8,121.1c-93.5,37.2-185,78.9-274,126.1   c-80.1,42.5-158.3,88.3-233.9,138.2c-78.5,51.7-154.2,107.5-226.7,167.2c-60.2,49.6-117.8,102-174.1,156   c-21.6,20.8-41.9,42.8-62.6,64.5c-36.8,38.6-72.3,78.3-106.5,119.1c-47.2,56.3-91.8,114.6-133.9,174.9H8192V396   C8185.2,395.4,8179.4,391.8,8173.5,388.9z"/>
</g>
<script xmlns=""/></svg>